# xmcd CD database file
#
# Track frame offsets:
#	150
#	12764
#	28150
#	48628
#	67277
#	83592
#	97567
#	113411
#	128266
#	142436
#	161381
#	175114
#	187069
#	204613
#	214791
#
# Disc length: 3102 seconds
#
# Revision: 4
# Processed by: cddbd v1.4PL0 Copyright (c) Steve Scherf et al.
# Submitted via: CDex 1.40Release
#
DISCID=c90c1c0f
DTITLE=Varios - Operacion triunfo (las mejores canciones)
DYEAR=2002
DGENRE=Pop
TTITLE0=Something - Rosa
TTITLE1=Desde la oscuridad - Rosa
TTITLE2=I have nothing - Rosa
TTITLE3=Ausencia (adagio) - Rosa
TTITLE4=Unchained melody - Rosa
TTITLE5=When a man loves a woman - David Bisbal
TTITLE6=Y, ¿si fuera ella? - David Bisbal
TTITLE7=Quiero - David Bisbal
TTITLE8=Vida loca - David Bisbal
TTITLE9=All by myself - David Bisbal
TTITLE10=Azul - David Bustamante
TTITLE11=Amantes de ocasión - David Bustamante
TTITLE12=Hasta que el alma resista - David Bustamante
TTITLE13=Es por amor - David Bustamante
TTITLE14=Perdóname - David Bustamante
EXTD=YEAR: 2002 ID3G: 13
EXTT0=
EXTT1=
EXTT2=
EXTT3=
EXTT4=
EXTT5=
EXTT6=
EXTT7=
EXTT8=
EXTT9=
EXTT10=
EXTT11=
EXTT12=
EXTT13=
EXTT14=
PLAYORDER=
